<?xml version="1.0" encoding="UTF-8"?>
<svg width="12px" height="12px" viewBox="0 0 12 12" version="1.1" xmlns="http://www.w3.org/2000/svg" xmlns:xlink="http://www.w3.org/1999/xlink">
    <title>-mockplus-</title>
    <g id="上传" stroke="none" stroke-width="1" fill="none" fill-rule="evenodd">
        <g id="数据助手" transform="translate(-270.000000, -294.000000)" fill-rule="nonzero">
            <g id="编组-2" transform="translate(0.000000, 184.000000)">
                <g id="编组-20" transform="translate(222.500000, 102.000000)">
                    <g id="编组-18" transform="translate(47.500000, 6.500000)">
                        <g id="-mockplus-" transform="translate(0.000000, 1.500000)">
                            <g id="箭头" transform="translate(6.000000, 6.000000) scale(1, -1) translate(-6.000000, -6.000000) ">
                                <rect id="矩形" fill="#000000" opacity="0" x="0" y="0" width="12" height="12"></rect>
                                <path d="M6.20595,2.68069333 L8.17995,4.65469333 C8.25286814,4.72682352 8.29390001,4.82512717 8.29390001,4.92769333 C8.29390001,5.0302595 8.25286814,5.12856315 8.17995,5.20069333 C8.11169899,5.27615826 8.01470046,5.31921663 7.91295,5.31921663 C7.81119955,5.31921663 7.71420102,5.27615826 7.64595,5.20069333 L6.27795,3.85069333 L6.27795,9.29869333 C6.29650065,9.44622753 6.22820811,9.59121047 6.10264457,9.67086134 C5.97708103,9.75051221 5.81681898,9.75051221 5.69125544,9.67086134 C5.5656919,9.59121047 5.49739936,9.44622753 5.51595,9.29869333 L5.51595,3.85069333 L4.14795,5.25469333 C3.97168538,5.34616159 3.75668743,5.31475739 3.61395,5.17669333 C3.54103187,5.10456315 3.5,5.0062595 3.5,4.90369333 C3.5,4.80112717 3.54103187,4.70282352 3.61395,4.63069333 L5.52195,2.68069333 C5.59907582,2.567636 5.72709113,2.5 5.86395,2.5 C6.00080888,2.5 6.12882419,2.567636 6.20595,2.68069333 L6.20595,2.68069333 Z" id="路径" fill="#17C5A2"></path>
                            </g>
                        </g>
                    </g>
                </g>
            </g>
        </g>
    </g>
</svg>