<?xml version="1.0" encoding="UTF-8"?>
<svg width="16px" height="16px" viewBox="0 0 16 16" version="1.1" xmlns="http://www.w3.org/2000/svg" xmlns:xlink="http://www.w3.org/1999/xlink">
    <title>收起状态</title>
    <g id="任务中心" stroke="none" stroke-width="1" fill="none" fill-rule="evenodd">
        <g id="首页" transform="translate(-104.000000, -1154.000000)">
            <g id="活动任务" transform="translate(19.000000, 1089.000000)">
                <g id="tab" transform="translate(0.000000, 53.000000)">
                    <g id="Tab/Bg-Copy">
                        <g id="编组-6" transform="translate(24.000000, 11.000000)">
                            <g id="收起状态" transform="translate(61.000000, 1.000000)">
                                <rect id="矩形" x="0" y="0" width="16" height="16"></rect>
                                <path d="M8.70710678,7.70710678 L11.2928932,10.2928932 C11.6834175,10.6834175 11.6834175,11.3165825 11.2928932,11.7071068 C11.1053568,11.8946432 10.8510029,12 10.5857864,12 L5.41421356,12 C4.86192881,12 4.41421356,11.5522847 4.41421356,11 C4.41421356,10.7347835 4.5195704,10.4804296 4.70710678,10.2928932 L7.29289322,7.70710678 C7.68341751,7.31658249 8.31658249,7.31658249 8.70710678,7.70710678 Z" id="三角形" fill="#9C9C9C" transform="translate(8.000000, 9.500000) scale(1, -1) translate(-8.000000, -9.500000) "></path>
                            </g>
                        </g>
                    </g>
                </g>
            </g>
        </g>
    </g>
</svg>